<svg class="animated" id="freepik_stories-about-us-page" xmlns="http://www.w3.org/2000/svg" xmlns:xlink="http://www.w3.org/1999/xlink" viewBox="0 0 500 500" version="1.1" xmlns:svgjs="http://svgjs.com/svgjs"><style>svg#freepik_stories-about-us-page:not(.animated) .animable {opacity: 0;}svg#freepik_stories-about-us-page.animated #freepik--background-simple--inject-105 {animation: 6s Infinite  linear spin;animation-delay: 0s;}svg#freepik_stories-about-us-page.animated #freepik--Shadow--inject-105 {animation: 3s Infinite  linear floating;animation-delay: 0s;}svg#freepik_stories-about-us-page.animated #freepik--Plants--inject-105 {animation: 3s Infinite  linear floating;animation-delay: 0s;}         @keyframes spin {             from {                 transform: rotate(0);               }               to {                 transform: rotate(360deg);               }         }                 @keyframes floating {                0% {                    opacity: 1;                    transform: translateY(0px);                }                50% {                    transform: translateY(-10px);                }                100% {                    opacity: 1;                    transform: translateY(0px);                }            }        </style><g id="freepik--background-simple--inject-105" class="animable" style="transform-origin: 244.573px 234.006px;"><path d="M387,130.86s-42.69-44.11-110.28-42-125.23,44.83-172.9,78.27S43.35,252.53,71.1,293.08s71.86,23.48,128.06,49.8S266,384.15,328.65,377.75s110.29-71.86,103.17-141.59S387,130.86,387,130.86Z" style="fill: #16A085; transform-origin: 244.573px 234.006px;" id="elgk4yskmq64q" class="animable"></path><g id="elnms12xknlf9"><path d="M387,130.86s-42.69-44.11-110.28-42-125.23,44.83-172.9,78.27S43.35,252.53,71.1,293.08s71.86,23.48,128.06,49.8S266,384.15,328.65,377.75s110.29-71.86,103.17-141.59S387,130.86,387,130.86Z" style="fill: rgb(255, 255, 255); opacity: 0.7; transform-origin: 244.573px 234.006px;" class="animable" id="elvcgueq5b92b"></path></g></g><g id="freepik--Shadow--inject-105" class="animable" style="transform-origin: 256.025px 399.305px;"><path d="M403.36,399.3c0,2.94-66,5.31-147.33,5.31s-147.34-2.37-147.34-5.31,66-5.3,147.34-5.3S403.36,396.37,403.36,399.3Z" style="fill: #16A085; transform-origin: 256.025px 399.305px;" id="ele5b5m8b22f" class="animable"></path><g id="els4lxrhfzotq"><path d="M403.36,399.3c0,2.94-66,5.31-147.33,5.31s-147.34-2.37-147.34-5.31,66-5.3,147.34-5.3S403.36,396.37,403.36,399.3Z" style="fill: rgb(255, 255, 255); opacity: 0.6; transform-origin: 256.025px 399.305px;" class="animable" id="eltze2s0mhj9q"></path></g></g><g id="freepik--Plants--inject-105" class="animable" style="transform-origin: 255.645px 300.021px;"><path d="M116.67,233.78c.06,0-.69-3.73-.77-4-.86-2.66-4.09-7.3-7.23-7.3a3.72,3.72,0,0,0-3.57,4.22c.23,2.2,2.21,4.08,4,5.16C111.2,233.17,116.67,233.78,116.67,233.78Z" style="fill: #16A085; transform-origin: 110.87px 228.13px;" id="el4r6sji4qjr3" class="animable"></path><path d="M122.74,208.66c-2.95,1.06-4.41,6.52-4.32,9.32,0,.24.56,4,.62,4l.06,0c-.24.86-.49,1.78-.74,2.8-.44,1.88-.92,4-1.29,6.36a65.63,65.63,0,0,0-.84,7.64,49.24,49.24,0,0,0,.29,8.6.44.44,0,0,1,0,.1c-.38-.83-1.54-3.12-1.65-3.29-1.54-2.34-5.88-6-8.91-5.13a3.71,3.71,0,0,0-2.32,5c.8,2.07,3.2,3.35,5.21,3.93,2.27.64,7.33-.12,7.73-.18a67.33,67.33,0,0,0,1.86,8.56c.47,1.64,1,3.28,1.52,4.91-.35-.71-.68-1.34-.73-1.42-1.54-2.34-5.88-6-8.91-5.13a3.71,3.71,0,0,0-2.32,5c.8,2.06,3.2,3.35,5.21,3.92s6.37,0,7.51-.14c.21.62.42,1.25.64,1.87,1,3,2.08,6,3,8.94.33,1,.61,2.08.9,3.12-.31-.63-.59-1.16-.64-1.23-1.53-2.35-5.88-6-8.9-5.13a3.71,3.71,0,0,0-2.33,5c.8,2.06,3.21,3.35,5.22,3.92s5.94.07,7.3-.12c.27,1.07.54,2.15.75,3.2.12.72.29,1.4.38,2.14l.3,2.14c.14,1.37.3,2.78.4,4.12.08.94.14,1.83.2,2.72-.31-1-1-3.07-1-3.23a14.41,14.41,0,0,0-4.8-5.46,5.07,5.07,0,0,0-.4-.72,3.72,3.72,0,0,0-5.46-.85c-2.37,2.05-1.78,7.67-.69,10.25.06.15,1,1.73,1.52,2.71l-1.27-1.58c-.88-1.07-1.78-2.11-2.74-3.23q-.74-.78-1.47-1.59c-.48-.54-1.05-1.05-1.58-1.59-1.26-1.21-2.59-2.38-4-3.52.94-.77,4.21-3.53,5.15-5.41s1.61-4.51.63-6.5a3.71,3.71,0,0,0-5.26-1.66c-2.66,1.66-2.93,7.31-2.24,10,0,.17.76,2.07,1.17,3.1-.83-.69-1.65-1.37-2.51-2-2.48-1.91-5-3.77-7.6-5.64l-2.33-1.73c.33-.27,4.29-3.47,5.35-5.58.94-1.87,1.61-4.51.63-6.49a3.71,3.71,0,0,0-5.27-1.67c-2.65,1.67-2.92,7.31-2.23,10,.05.2,1.08,2.92,1.38,3.6-1.71-1.27-3.4-2.55-5-3.88a66,66,0,0,1-6.2-5.78c.15-.12,4.3-3.45,5.38-5.6.94-1.87,1.61-4.51.63-6.5A3.71,3.71,0,0,0,82.48,252c-2.66,1.67-2.92,7.32-2.24,10,.05.18.83,2.26,1.23,3.23l-.15.1a48,48,0,0,1-5.1-6.84c-.83-1.32-1.56-2.64-2.24-3.93.84-.54,4.63-3,5.82-4.88s2.1-4.31,1.34-6.39a3.71,3.71,0,0,0-5-2.23c-2.82,1.36-3.71,7-3.32,9.72,0,.15.4,1.66.7,2.75-.3-.58-.62-1.19-.89-1.76-1-2.13-1.85-4.15-2.55-5.94-.39-1-.73-2-1-2.84.54-.95,2.69-4.84,2.89-7s-.12-4.79-1.75-6.29a3.72,3.72,0,0,0-5.52.34c-1.87,2.51-.08,7.88,1.54,10.16.14.2,2.68,3,2.71,3l0-.06c.28.85.58,1.75.94,2.74.67,1.81,1.44,3.85,2.43,6a65.73,65.73,0,0,0,3.52,6.84,48.53,48.53,0,0,0,5,7l.07.07c-.78-.48-3-1.75-3.19-1.83-2.57-1.11-8.2-1.73-10.26.63a3.71,3.71,0,0,0,.83,5.46c1.8,1.28,4.52,1,6.51.4,2.25-.71,6-4.14,6.35-4.41a66.15,66.15,0,0,0,6.28,6.11c1.29,1.11,2.62,2.19,4,3.26-.69-.39-1.31-.74-1.4-.78-2.57-1.11-8.19-1.73-10.25.63a3.7,3.7,0,0,0,.82,5.46c1.81,1.28,4.52,1,6.52.4s5.31-3.5,6.18-4.27l1.56,1.22c2.52,1.93,5,3.84,7.45,5.79.85.69,1.66,1.39,2.48,2.1-.61-.35-1.13-.64-1.22-.68-2.57-1.1-8.19-1.73-10.25.64a3.7,3.7,0,0,0,.82,5.46c1.81,1.28,4.52,1,6.52.39s5-3.22,6-4.12c.81.74,1.63,1.49,2.39,2.25.5.53,1,1,1.5,1.57l1.43,1.63c.88,1.06,1.78,2.15,2.61,3.21.58.74,1.12,1.45,1.67,2.16-.84-.69-2.51-2-2.67-2.11-2.37-1.49-7.83-2.95-10.23-.93a3.71,3.71,0,0,0,0,5.52c1.59,1.54,4.31,1.7,6.38,1.38,2.27-.35,6.39-3,6.9-3.37.9,1.18,1.76,2.34,2.56,3.44,2.77,3.83,4.93,7.13,6.41,9.45l.15.24,1.92-.93-.3-.46c-1.55-2.31-3.8-5.59-6.69-9.4-.9-1.21-1.9-2.47-2.93-3.77a41.25,41.25,0,0,0,3-3.68c2.2.86,6.79.89,7.38.89.1,1.49.18,2.93.23,4.29.2,4.73.18,8.67.14,11.42,0,.11,0,.21,0,.32l2.11-1c0-2.74-.11-6.44-.38-10.82-.1-1.5-.23-3.11-.37-4.76.58-.14,5.35-1.37,7.15-2.81,1.64-1.3,3.36-3.42,3.3-5.63a3.71,3.71,0,0,0-4.08-3.72c-3.12.4-5.72,5.41-6.23,8.17,0,.16-.17,2-.23,3.09-.06-.67-.12-1.32-.19-2-.14-1.37-.32-2.73-.5-4.2-.12-.7-.24-1.42-.35-2.14s-.3-1.46-.45-2.19c-.38-1.71-.84-3.42-1.35-5.13,1.2-.12,5.46-.62,7.28-1.67s3.83-2.87,4.11-5.07a3.71,3.71,0,0,0-3.47-4.29c-3.14-.08-6.48,4.48-7.4,7.13-.06.16-.51,2.13-.73,3.22-.32-1-.62-2.05-1-3.08-1-3-2.13-5.93-3.23-8.9l-1-2.73c.43,0,5.5-.52,7.54-1.7,1.81-1,3.83-2.87,4.11-5.07a3.7,3.7,0,0,0-3.47-4.29c-3.14-.08-6.48,4.49-7.4,7.13-.07.2-.71,3-.84,3.77-.72-2-1.42-4-2-6a68.9,68.9,0,0,1-2-8.24c.2,0,5.5-.5,7.59-1.7,1.81-1.05,3.83-2.88,4.11-5.08a3.71,3.71,0,0,0-3.48-4.29c-3.13-.08-6.47,4.49-7.39,7.13-.06.17-.55,2.34-.76,3.37h-.18a47.81,47.81,0,0,1-.48-8.51c0-1.56.15-3.06.3-4.51,1,0,5.55,0,7.55-.86s4.12-2.44,4.64-4.59a3.71,3.71,0,0,0-3-4.65c-3.11-.42-6.93,3.75-8.13,6.27-.07.14-.58,1.61-.94,2.69.07-.66.14-1.33.23-2,.32-2.35.75-4.48,1.15-6.37.24-1.07.47-2,.7-2.93,1-.5,4.92-2.55,6.27-4.22s2.53-4.06,2-6.21A3.71,3.71,0,0,0,122.74,208.66Z" style="fill: #16A085; transform-origin: 102.112px 260.266px;" id="elj7ivwaqt38c" class="animable"></path><path d="M66.06,257c2.45-.1,7.35-2.62,7.36-2.62s-2.64-2.72-2.83-2.88c-2.19-1.74-7.45-3.83-10.06-2.09a3.71,3.71,0,0,0-.65,5.48C61.29,256.6,64,257.08,66.06,257Z" style="fill: #16A085; transform-origin: 66.1889px 252.882px;" id="elh3if9veg74v" class="animable"></path><g id="elmx2ghor5a4"><g style="opacity: 0.5; transform-origin: 99.6397px 260.266px;" class="animable" id="elul0vd2b926a"><path d="M116.67,233.78c.06,0-.69-3.73-.77-4-.86-2.66-4.09-7.3-7.23-7.3a3.72,3.72,0,0,0-3.57,4.22c.23,2.2,2.21,4.08,4,5.16C111.2,233.17,116.67,233.78,116.67,233.78Z" style="fill: rgb(255, 255, 255); transform-origin: 110.87px 228.13px;" id="eluoygcj1xxe" class="animable"></path><path d="M122.74,208.66c-2.95,1.06-4.41,6.52-4.32,9.32,0,.24.56,4,.62,4l.06,0c-.24.86-.49,1.78-.74,2.8-.44,1.88-.92,4-1.29,6.36a65.63,65.63,0,0,0-.84,7.64,49.24,49.24,0,0,0,.29,8.6.44.44,0,0,1,0,.1c-.38-.83-1.54-3.12-1.65-3.29-1.54-2.34-5.88-6-8.91-5.13a3.71,3.71,0,0,0-2.32,5c.8,2.07,3.2,3.35,5.21,3.93,2.27.64,7.33-.12,7.73-.18a67.33,67.33,0,0,0,1.86,8.56c.47,1.64,1,3.28,1.52,4.91-.35-.71-.68-1.34-.73-1.42-1.54-2.34-5.88-6-8.91-5.13a3.71,3.71,0,0,0-2.32,5c.8,2.06,3.2,3.35,5.21,3.92s6.37,0,7.51-.14c.21.62.42,1.25.64,1.87,1,3,2.08,6,3,8.94.33,1,.61,2.08.9,3.12-.31-.63-.59-1.16-.64-1.23-1.53-2.35-5.88-6-8.9-5.13a3.71,3.71,0,0,0-2.33,5c.8,2.06,3.21,3.35,5.22,3.92s5.94.07,7.3-.12c.27,1.07.54,2.15.75,3.2.12.72.29,1.4.38,2.14l.3,2.14c.14,1.37.3,2.78.4,4.12.08.94.14,1.83.2,2.72-.31-1-1-3.07-1-3.23a14.41,14.41,0,0,0-4.8-5.46,5.07,5.07,0,0,0-.4-.72,3.72,3.72,0,0,0-5.46-.85c-2.37,2.05-1.78,7.67-.69,10.25.06.15,1,1.73,1.52,2.71l-1.27-1.58c-.88-1.07-1.78-2.11-2.74-3.23q-.74-.78-1.47-1.59c-.48-.54-1.05-1.05-1.58-1.59-1.26-1.21-2.59-2.38-4-3.52.94-.77,4.21-3.53,5.15-5.41s1.61-4.51.63-6.5a3.71,3.71,0,0,0-5.26-1.66c-2.66,1.66-2.93,7.31-2.24,10,0,.17.76,2.07,1.17,3.1-.83-.69-1.65-1.37-2.51-2-2.48-1.91-5-3.77-7.6-5.64l-2.33-1.73c.33-.27,4.29-3.47,5.35-5.58.94-1.87,1.61-4.51.63-6.49a3.71,3.71,0,0,0-5.27-1.67c-2.65,1.67-2.92,7.31-2.23,10,.05.2,1.08,2.92,1.38,3.6-1.71-1.27-3.4-2.55-5-3.88a66,66,0,0,1-6.2-5.78c.15-.12,4.3-3.45,5.38-5.6.94-1.87,1.61-4.51.63-6.5A3.71,3.71,0,0,0,82.48,252c-2.66,1.67-2.92,7.32-2.24,10,.05.18.83,2.26,1.23,3.23l-.15.1a48,48,0,0,1-5.1-6.84c-.83-1.32-1.56-2.64-2.24-3.93.84-.54,4.63-3,5.82-4.88s2.1-4.31,1.34-6.39a3.71,3.71,0,0,0-5-2.23c-2.82,1.36-3.71,7-3.32,9.72,0,.15.4,1.66.7,2.75-.3-.58-.62-1.19-.89-1.76-1-2.13-1.85-4.15-2.55-5.94-.39-1-.73-2-1-2.84.54-.95,2.69-4.84,2.89-7s-.12-4.79-1.75-6.29a3.72,3.72,0,0,0-5.52.34c-1.87,2.51-.08,7.88,1.54,10.16.14.2,2.68,3,2.71,3l0-.06c.28.85.58,1.75.94,2.74.67,1.81,1.44,3.85,2.43,6a65.73,65.73,0,0,0,3.52,6.84,48.53,48.53,0,0,0,5,7l.07.07c-.78-.48-3-1.75-3.19-1.83-2.57-1.11-8.2-1.73-10.26.63a3.71,3.71,0,0,0,.83,5.46c1.8,1.28,4.52,1,6.51.4,2.25-.71,6-4.14,6.35-4.41a66.15,66.15,0,0,0,6.28,6.11c1.29,1.11,2.62,2.19,4,3.26-.69-.39-1.31-.74-1.4-.78-2.57-1.11-8.19-1.73-10.25.63a3.7,3.7,0,0,0,.82,5.46c1.81,1.28,4.52,1,6.52.4s5.31-3.5,6.18-4.27l1.56,1.22c2.52,1.93,5,3.84,7.45,5.79.85.69,1.66,1.39,2.48,2.1-.61-.35-1.13-.64-1.22-.68-2.57-1.1-8.19-1.73-10.25.64a3.7,3.7,0,0,0,.82,5.46c1.81,1.28,4.52,1,6.52.39s5-3.22,6-4.12c.81.74,1.63,1.49,2.39,2.25.5.53,1,1,1.5,1.57l1.43,1.63c.88,1.06,1.78,2.15,2.61,3.21.58.74,1.12,1.45,1.67,2.16-.84-.69-2.51-2-2.67-2.11-2.37-1.49-7.83-2.95-10.23-.93a3.71,3.71,0,0,0,0,5.52c1.59,1.54,4.31,1.7,6.38,1.38,2.27-.35,6.39-3,6.9-3.37.9,1.18,1.76,2.34,2.56,3.44,2.77,3.83,4.93,7.13,6.41,9.45l.15.24,1.92-.93-.3-.46c-1.55-2.31-3.8-5.59-6.69-9.4-.9-1.21-1.9-2.47-2.93-3.77a41.25,41.25,0,0,0,3-3.68c2.2.86,6.79.89,7.38.89.1,1.49.18,2.93.23,4.29.2,4.73.18,8.67.14,11.42,0,.11,0,.21,0,.32l2.11-1c0-2.74-.11-6.44-.38-10.82-.1-1.5-.23-3.11-.37-4.76.58-.14,5.35-1.37,7.15-2.81,1.64-1.3,3.36-3.42,3.3-5.63a3.71,3.71,0,0,0-4.08-3.72c-3.12.4-5.72,5.41-6.23,8.17,0,.16-.17,2-.23,3.09-.06-.67-.12-1.32-.19-2-.14-1.37-.32-2.73-.5-4.2-.12-.7-.24-1.42-.35-2.14s-.3-1.46-.45-2.19c-.38-1.71-.84-3.42-1.35-5.13,1.2-.12,5.46-.62,7.28-1.67s3.83-2.87,4.11-5.07a3.71,3.71,0,0,0-3.47-4.29c-3.14-.08-6.48,4.48-7.4,7.13-.06.16-.51,2.13-.73,3.22-.32-1-.62-2.05-1-3.08-1-3-2.13-5.93-3.23-8.9l-1-2.73c.43,0,5.5-.52,7.54-1.7,1.81-1,3.83-2.87,4.11-5.07a3.7,3.7,0,0,0-3.47-4.29c-3.14-.08-6.48,4.49-7.4,7.13-.07.2-.71,3-.84,3.77-.72-2-1.42-4-2-6a68.9,68.9,0,0,1-2-8.24c.2,0,5.5-.5,7.59-1.7,1.81-1.05,3.83-2.88,4.11-5.08a3.71,3.71,0,0,0-3.48-4.29c-3.13-.08-6.47,4.49-7.39,7.13-.06.17-.55,2.34-.76,3.37h-.18a47.81,47.81,0,0,1-.48-8.51c0-1.56.15-3.06.3-4.51,1,0,5.55,0,7.55-.86s4.12-2.44,4.64-4.59a3.71,3.71,0,0,0-3-4.65c-3.11-.42-6.93,3.75-8.13,6.27-.07.14-.58,1.61-.94,2.69.07-.66.14-1.33.23-2,.32-2.35.75-4.48,1.15-6.37.24-1.07.47-2,.7-2.93,1-.5,4.92-2.55,6.27-4.22s2.53-4.06,2-6.21A3.71,3.71,0,0,0,122.74,208.66Z" style="fill: rgb(255, 255, 255); transform-origin: 102.112px 260.266px;" id="elxz4867oe55" class="animable"></path><path d="M66.06,257c2.45-.1,7.35-2.62,7.36-2.62s-2.64-2.72-2.83-2.88c-2.19-1.74-7.45-3.83-10.06-2.09a3.71,3.71,0,0,0-.65,5.48C61.29,256.6,64,257.08,66.06,257Z" style="fill: rgb(255, 255, 255); transform-origin: 66.1889px 252.882px;" id="el9tg8c2cio3e" class="animable"></path></g></g><path d="M94.67,318.35s14.87-35.84,23.19-34.28-14.27,57.14-14.27,57.14,26.16-49.35,44-49.35-6.54,54.54-29.13,72.72c0,0,35.67-38.44,56.49-30.12s-41.63,47.27-41.63,47.27,36.27-11.43,32.11-2.6S150,389.52,150,389.52l41,2.08H48.29l32.11-3.12S47.1,371.86,56,365.1s28.54,7.79,28.54,7.79-33.89-37.4-27.35-51.42,35.68,25.45,35.68,25.45-23.79-50.38-19-59.22S94.67,318.35,94.67,318.35Z" style="fill: #16A085; transform-origin: 119.645px 337.81px;" id="elpn7mvxj0flj" class="animable"></path><g id="elksme5o0n4sa"><path d="M94.67,318.35s14.87-35.84,23.19-34.28-14.27,57.14-14.27,57.14,26.16-49.35,44-49.35-6.54,54.54-29.13,72.72c0,0,35.67-38.44,56.49-30.12s-41.63,47.27-41.63,47.27,36.27-11.43,32.11-2.6S150,389.52,150,389.52l41,2.08H48.29l32.11-3.12S47.1,371.86,56,365.1s28.54,7.79,28.54,7.79-33.89-37.4-27.35-51.42,35.68,25.45,35.68,25.45-23.79-50.38-19-59.22S94.67,318.35,94.67,318.35Z" style="fill: rgb(255, 255, 255); opacity: 0.4; transform-origin: 119.645px 337.81px;" class="animable" id="eluwz5myomjy"></path></g><path d="M89.92,320.24c13.08,38.65,13.08,66,13.08,66s-15.46.6-31.52-11.29" style="fill: none; stroke: rgb(38, 50, 56); stroke-linecap: round; stroke-linejoin: round; transform-origin: 87.24px 353.243px;" id="el43pdy60t61v" class="animable"></path><path d="M96.46,341.05a231.27,231.27,0,0,1,10.7-33.89" style="fill: none; stroke: rgb(38, 50, 56); stroke-linecap: round; stroke-linejoin: round; transform-origin: 101.81px 324.105px;" id="elzg09v6lvbn" class="animable"></path><path d="M135.11,318.46l-33.3,49.35s-22.6-19-30.33-29.73" style="fill: none; stroke: rgb(38, 50, 56); stroke-linecap: round; stroke-linejoin: round; transform-origin: 103.295px 343.135px;" id="eldcngby01mfr" class="animable"></path><path d="M102.4,379.7s35.08-16.65,49.36-26.16" style="fill: none; stroke: rgb(38, 50, 56); stroke-linecap: round; stroke-linejoin: round; transform-origin: 127.08px 366.62px;" id="el1fds8mqcv16" class="animable"></path><path d="M394.62,233.78c-.06,0,.7-3.73.77-4,.86-2.66,4.1-7.3,7.23-7.3a3.72,3.72,0,0,1,3.57,4.22c-.23,2.2-2.21,4.08-4,5.16C400.09,233.17,394.62,233.78,394.62,233.78Z" style="fill: #16A085; transform-origin: 400.42px 228.13px;" id="elv67igzcyzjs" class="animable"></path><path d="M388.55,208.66c2.95,1.06,4.42,6.52,4.32,9.32,0,.24-.56,4-.61,4l-.06,0c.23.86.48,1.78.73,2.8.44,1.88.92,4,1.29,6.36a65.63,65.63,0,0,1,.84,7.64,48.28,48.28,0,0,1-.29,8.6.44.44,0,0,0,0,.1c.39-.83,1.55-3.12,1.65-3.29,1.54-2.34,5.88-6,8.91-5.13a3.7,3.7,0,0,1,2.32,5c-.8,2.07-3.2,3.35-5.21,3.93-2.27.64-7.33-.12-7.73-.18a65.64,65.64,0,0,1-1.86,8.56q-.7,2.46-1.52,4.91c.35-.71.68-1.34.73-1.42,1.54-2.34,5.89-6,8.91-5.13a3.7,3.7,0,0,1,2.32,5c-.8,2.06-3.2,3.35-5.21,3.92s-6.37,0-7.51-.14l-.63,1.87c-1,3-2.09,6-3,8.94-.33,1-.62,2.08-.91,3.12.32-.63.59-1.16.64-1.23,1.54-2.35,5.88-6,8.9-5.13a3.71,3.71,0,0,1,2.33,5c-.8,2.06-3.21,3.35-5.22,3.92s-5.94.07-7.3-.12c-.27,1.07-.53,2.15-.74,3.2-.13.72-.3,1.4-.39,2.14l-.3,2.14c-.14,1.37-.3,2.78-.4,4.12-.08.94-.14,1.83-.2,2.72.32-1,1-3.07,1.05-3.23a14.5,14.5,0,0,1,4.8-5.46,4.3,4.3,0,0,1,.41-.72,3.7,3.7,0,0,1,5.45-.85c2.38,2.05,1.78,7.67.69,10.25-.06.15-.95,1.73-1.52,2.71.43-.53.83-1,1.28-1.58.87-1.07,1.77-2.11,2.73-3.23l1.47-1.59c.48-.54,1.06-1.05,1.59-1.59,1.25-1.21,2.58-2.38,3.95-3.52-.93-.77-4.21-3.53-5.15-5.41s-1.61-4.51-.63-6.5a3.71,3.71,0,0,1,5.27-1.66c2.65,1.66,2.92,7.31,2.23,10,0,.17-.76,2.07-1.17,3.1.83-.69,1.65-1.37,2.51-2,2.48-1.91,5.05-3.77,7.6-5.64l2.33-1.73c-.33-.27-4.29-3.47-5.35-5.58-.93-1.87-1.61-4.51-.63-6.49a3.71,3.71,0,0,1,5.27-1.67c2.66,1.67,2.92,7.31,2.23,10-.05.2-1.08,2.92-1.37,3.6,1.7-1.27,3.39-2.55,5-3.88a66,66,0,0,0,6.2-5.78c-.15-.12-4.3-3.45-5.38-5.6-.94-1.87-1.61-4.51-.63-6.5a3.71,3.71,0,0,1,5.26-1.67c2.66,1.67,2.93,7.32,2.24,10-.05.18-.83,2.26-1.22,3.23a.78.78,0,0,0,.15.1,47.88,47.88,0,0,0,5.09-6.84c.84-1.32,1.56-2.64,2.24-3.93-.84-.54-4.63-3-5.82-4.88s-2.09-4.31-1.34-6.39a3.71,3.71,0,0,1,5.05-2.23c2.83,1.36,3.71,7,3.32,9.72,0,.15-.4,1.66-.69,2.75.29-.58.61-1.19.88-1.76,1-2.13,1.85-4.15,2.55-5.94.4-1,.73-2,1-2.84-.55-.95-2.69-4.84-2.9-7s.13-4.79,1.76-6.29a3.71,3.71,0,0,1,5.51.34c1.88,2.51.09,7.88-1.53,10.16-.14.2-2.69,3-2.72,3l0-.06c-.28.85-.58,1.75-.94,2.74-.66,1.81-1.43,3.85-2.42,6a67.92,67.92,0,0,1-3.53,6.84,48.53,48.53,0,0,1-5,7l-.07.07c.78-.48,3-1.75,3.19-1.83,2.58-1.11,8.2-1.73,10.26.63a3.71,3.71,0,0,1-.82,5.46c-1.81,1.28-4.52,1-6.52.4-2.25-.71-6-4.14-6.34-4.41a66.15,66.15,0,0,1-6.28,6.11c-1.29,1.11-2.63,2.19-4,3.26.69-.39,1.31-.74,1.4-.78,2.57-1.11,8.19-1.73,10.25.63a3.7,3.7,0,0,1-.82,5.46c-1.8,1.28-4.52,1-6.51.4s-5.32-3.5-6.18-4.27c-.53.41-1,.82-1.57,1.22-2.51,1.93-5,3.84-7.45,5.79-.85.69-1.66,1.39-2.48,2.1l1.22-.68c2.57-1.1,8.19-1.73,10.25.64a3.7,3.7,0,0,1-.82,5.46c-1.81,1.28-4.52,1-6.51.39s-5-3.22-6-4.12c-.81.74-1.63,1.49-2.38,2.25-.51.53-1,1-1.5,1.57l-1.44,1.63c-.87,1.06-1.78,2.15-2.61,3.21-.58.74-1.12,1.45-1.66,2.16.83-.69,2.51-2,2.66-2.11,2.37-1.49,7.84-2.95,10.23-.93a3.71,3.71,0,0,1,0,5.52c-1.6,1.54-4.32,1.7-6.38,1.38-2.28-.35-6.4-3-6.91-3.37-.9,1.18-1.76,2.34-2.56,3.44-2.77,3.83-4.93,7.13-6.41,9.45,0,.09-.1.16-.15.24l-1.92-.93.3-.46c1.55-2.31,3.81-5.59,6.69-9.4.91-1.21,1.9-2.47,2.93-3.77a40,40,0,0,1-3-3.68c-2.21.86-6.79.89-7.39.89-.09,1.49-.17,2.93-.23,4.29-.2,4.73-.18,8.67-.13,11.42v.32l-2.11-1c0-2.74.11-6.44.39-10.82.09-1.5.22-3.11.37-4.76-.59-.14-5.36-1.37-7.16-2.81-1.63-1.3-3.35-3.42-3.29-5.63a3.7,3.7,0,0,1,4.08-3.72c3.11.4,5.72,5.41,6.23,8.17,0,.16.16,2,.22,3.09.07-.67.12-1.32.2-2,.13-1.37.31-2.73.5-4.2.11-.7.23-1.42.34-2.14s.3-1.46.45-2.19c.38-1.71.84-3.42,1.35-5.13-1.2-.12-5.45-.62-7.28-1.67s-3.83-2.87-4.1-5.07a3.7,3.7,0,0,1,3.47-4.29c3.13-.08,6.47,4.48,7.39,7.13.06.16.51,2.13.73,3.22.32-1,.62-2.05,1-3.08,1-3,2.13-5.93,3.23-8.9.34-.91.66-1.82,1-2.73-.43,0-5.5-.52-7.54-1.7-1.81-1-3.83-2.87-4.11-5.07a3.71,3.71,0,0,1,3.47-4.29c3.14-.08,6.48,4.49,7.4,7.13.07.2.71,3,.84,3.77.72-2,1.43-4,2-6a65.26,65.26,0,0,0,2-8.24c-.2,0-5.49-.5-7.58-1.7-1.82-1.05-3.84-2.88-4.11-5.08a3.7,3.7,0,0,1,3.47-4.29c3.13-.08,6.47,4.49,7.39,7.13.06.17.56,2.34.77,3.37h.17a47.81,47.81,0,0,0,.48-8.51c0-1.56-.15-3.06-.3-4.51-1,0-5.54,0-7.54-.86s-4.13-2.44-4.65-4.59a3.71,3.71,0,0,1,3-4.65c3.11-.42,6.93,3.75,8.14,6.27.06.14.58,1.61.93,2.69-.07-.66-.14-1.33-.23-2-.31-2.35-.75-4.48-1.15-6.37-.24-1.07-.47-2-.7-2.93-1-.5-4.92-2.55-6.26-4.22s-2.54-4.06-2-6.21A3.71,3.71,0,0,1,388.55,208.66Z" style="fill: #16A085; transform-origin: 409.262px 260.27px;" id="elyy97v5if3q" class="animable"></path><path d="M445.23,257c-2.45-.1-7.35-2.62-7.35-2.62s2.63-2.72,2.82-2.88c2.19-1.74,7.45-3.83,10.06-2.09a3.7,3.7,0,0,1,.65,5.48C450,256.6,447.32,257.08,445.23,257Z" style="fill: #16A085; transform-origin: 445.109px 252.882px;" id="el7zk35kyj4al" class="animable"></path><g id="elmomrdby2teb"><g style="opacity: 0.5; transform-origin: 411.698px 260.27px;" class="animable" id="el44qnn5b2oh"><path d="M394.62,233.78c-.06,0,.7-3.73.77-4,.86-2.66,4.1-7.3,7.23-7.3a3.72,3.72,0,0,1,3.57,4.22c-.23,2.2-2.21,4.08-4,5.16C400.09,233.17,394.62,233.78,394.62,233.78Z" style="fill: rgb(255, 255, 255); transform-origin: 400.42px 228.13px;" id="el5hbx6zmnthb" class="animable"></path><path d="M388.55,208.66c2.95,1.06,4.42,6.52,4.32,9.32,0,.24-.56,4-.61,4l-.06,0c.23.86.48,1.78.73,2.8.44,1.88.92,4,1.29,6.36a65.63,65.63,0,0,1,.84,7.64,48.28,48.28,0,0,1-.29,8.6.44.44,0,0,0,0,.1c.39-.83,1.55-3.12,1.65-3.29,1.54-2.34,5.88-6,8.91-5.13a3.7,3.7,0,0,1,2.32,5c-.8,2.07-3.2,3.35-5.21,3.93-2.27.64-7.33-.12-7.73-.18a65.64,65.64,0,0,1-1.86,8.56q-.7,2.46-1.52,4.91c.35-.71.68-1.34.73-1.42,1.54-2.34,5.89-6,8.91-5.13a3.7,3.7,0,0,1,2.32,5c-.8,2.06-3.2,3.35-5.21,3.92s-6.37,0-7.51-.14l-.63,1.87c-1,3-2.09,6-3,8.94-.33,1-.62,2.08-.91,3.12.32-.63.59-1.16.64-1.23,1.54-2.35,5.88-6,8.9-5.13a3.71,3.71,0,0,1,2.33,5c-.8,2.06-3.21,3.35-5.22,3.92s-5.94.07-7.3-.12c-.27,1.07-.53,2.15-.74,3.2-.13.72-.3,1.4-.39,2.14l-.3,2.14c-.14,1.37-.3,2.78-.4,4.12-.08.94-.14,1.83-.2,2.72.32-1,1-3.07,1.05-3.23a14.5,14.5,0,0,1,4.8-5.46,4.3,4.3,0,0,1,.41-.72,3.7,3.7,0,0,1,5.45-.85c2.38,2.05,1.78,7.67.69,10.25-.06.15-.95,1.73-1.52,2.71.43-.53.83-1,1.28-1.58.87-1.07,1.77-2.11,2.73-3.23l1.47-1.59c.48-.54,1.06-1.05,1.59-1.59,1.25-1.21,2.58-2.38,3.95-3.52-.93-.77-4.21-3.53-5.15-5.41s-1.61-4.51-.63-6.5a3.71,3.71,0,0,1,5.27-1.66c2.65,1.66,2.92,7.31,2.23,10,0,.17-.76,2.07-1.17,3.1.83-.69,1.65-1.37,2.51-2,2.48-1.91,5.05-3.77,7.6-5.64l2.33-1.73c-.33-.27-4.29-3.47-5.35-5.58-.93-1.87-1.61-4.51-.63-6.49a3.71,3.71,0,0,1,5.27-1.67c2.66,1.67,2.92,7.31,2.23,10-.05.2-1.08,2.92-1.37,3.6,1.7-1.27,3.39-2.55,5-3.88a66,66,0,0,0,6.2-5.78c-.15-.12-4.3-3.45-5.38-5.6-.94-1.87-1.61-4.51-.63-6.5a3.71,3.71,0,0,1,5.26-1.67c2.66,1.67,2.93,7.32,2.24,10-.05.18-.83,2.26-1.22,3.23a.78.78,0,0,0,.15.1,47.88,47.88,0,0,0,5.09-6.84c.84-1.32,1.56-2.64,2.24-3.93-.84-.54-4.63-3-5.82-4.88s-2.09-4.31-1.34-6.39a3.71,3.71,0,0,1,5.05-2.23c2.83,1.36,3.71,7,3.32,9.72,0,.15-.4,1.66-.69,2.75.29-.58.61-1.19.88-1.76,1-2.13,1.85-4.15,2.55-5.94.4-1,.73-2,1-2.84-.55-.95-2.69-4.84-2.9-7s.13-4.79,1.76-6.29a3.71,3.71,0,0,1,5.51.34c1.88,2.51.09,7.88-1.53,10.16-.14.2-2.69,3-2.72,3l0-.06c-.28.85-.58,1.75-.94,2.74-.66,1.81-1.43,3.85-2.42,6a67.92,67.92,0,0,1-3.53,6.84,48.53,48.53,0,0,1-5,7l-.07.07c.78-.48,3-1.75,3.19-1.83,2.58-1.11,8.2-1.73,10.26.63a3.71,3.71,0,0,1-.82,5.46c-1.81,1.28-4.52,1-6.52.4-2.25-.71-6-4.14-6.34-4.41a66.15,66.15,0,0,1-6.28,6.11c-1.29,1.11-2.63,2.19-4,3.26.69-.39,1.31-.74,1.4-.78,2.57-1.11,8.19-1.73,10.25.63a3.7,3.7,0,0,1-.82,5.46c-1.8,1.28-4.52,1-6.51.4s-5.32-3.5-6.18-4.27c-.53.41-1,.82-1.57,1.22-2.51,1.93-5,3.84-7.45,5.79-.85.69-1.66,1.39-2.48,2.1l1.22-.68c2.57-1.1,8.19-1.73,10.25.64a3.7,3.7,0,0,1-.82,5.46c-1.81,1.28-4.52,1-6.51.39s-5-3.22-6-4.12c-.81.74-1.63,1.49-2.38,2.25-.51.53-1,1-1.5,1.57l-1.44,1.63c-.87,1.06-1.78,2.15-2.61,3.21-.58.74-1.12,1.45-1.66,2.16.83-.69,2.51-2,2.66-2.11,2.37-1.49,7.84-2.95,10.23-.93a3.71,3.71,0,0,1,0,5.52c-1.6,1.54-4.32,1.7-6.38,1.38-2.28-.35-6.4-3-6.91-3.37-.9,1.18-1.76,2.34-2.56,3.44-2.77,3.83-4.93,7.13-6.41,9.45,0,.09-.1.16-.15.24l-1.92-.93.3-.46c1.55-2.31,3.81-5.59,6.69-9.4.91-1.21,1.9-2.47,2.93-3.77a40,40,0,0,1-3-3.68c-2.21.86-6.79.89-7.39.89-.09,1.49-.17,2.93-.23,4.29-.2,4.73-.18,8.67-.13,11.42v.32l-2.11-1c0-2.74.11-6.44.39-10.82.09-1.5.22-3.11.37-4.76-.59-.14-5.36-1.37-7.16-2.81-1.63-1.3-3.35-3.42-3.29-5.63a3.7,3.7,0,0,1,4.08-3.72c3.11.4,5.72,5.41,6.23,8.17,0,.16.16,2,.22,3.09.07-.67.12-1.32.2-2,.13-1.37.31-2.73.5-4.2.11-.7.23-1.42.34-2.14s.3-1.46.45-2.19c.38-1.71.84-3.42,1.35-5.13-1.2-.12-5.45-.62-7.28-1.67s-3.83-2.87-4.1-5.07a3.7,3.7,0,0,1,3.47-4.29c3.13-.08,6.47,4.48,7.39,7.13.06.16.51,2.13.73,3.22.32-1,.62-2.05,1-3.08,1-3,2.13-5.93,3.23-8.9.34-.91.66-1.82,1-2.73-.43,0-5.5-.52-7.54-1.7-1.81-1-3.83-2.87-4.11-5.07a3.71,3.71,0,0,1,3.47-4.29c3.14-.08,6.48,4.49,7.4,7.13.07.2.71,3,.84,3.77.72-2,1.43-4,2-6a65.26,65.26,0,0,0,2-8.24c-.2,0-5.49-.5-7.58-1.7-1.82-1.05-3.84-2.88-4.11-5.08a3.7,3.7,0,0,1,3.47-4.29c3.13-.08,6.47,4.49,7.39,7.13.06.17.56,2.34.77,3.37h.17a47.81,47.81,0,0,0,.48-8.51c0-1.56-.15-3.06-.3-4.51-1,0-5.54,0-7.54-.86s-4.13-2.44-4.65-4.59a3.71,3.71,0,0,1,3-4.65c3.11-.42,6.93,3.75,8.14,6.27.06.14.58,1.61.93,2.69-.07-.66-.14-1.33-.23-2-.31-2.35-.75-4.48-1.15-6.37-.24-1.07-.47-2-.7-2.93-1-.5-4.92-2.55-6.26-4.22s-2.54-4.06-2-6.21A3.71,3.71,0,0,1,388.55,208.66Z" style="fill: rgb(255, 255, 255); transform-origin: 409.262px 260.27px;" id="el9syuhtepua" class="animable"></path><path d="M445.23,257c-2.45-.1-7.35-2.62-7.35-2.62s2.63-2.72,2.82-2.88c2.19-1.74,7.45-3.83,10.06-2.09a3.7,3.7,0,0,1,.65,5.48C450,256.6,447.32,257.08,445.23,257Z" style="fill: rgb(255, 255, 255); transform-origin: 445.109px 252.882px;" id="elalrkvb6e6hw" class="animable"></path></g></g><path d="M416.62,318.35s-14.87-35.84-23.19-34.28,14.27,57.14,14.27,57.14-26.16-49.35-44-49.35,6.54,54.54,29.14,72.72c0,0-35.68-38.44-56.49-30.12S378,381.73,378,381.73s-36.27-11.43-32.11-2.6,15.46,10.39,15.46,10.39l-41,2.08H463l-32.11-3.12s33.3-16.62,24.38-23.38-28.54,7.79-28.54,7.79,33.89-37.4,27.35-51.42-35.68,25.45-35.68,25.45,23.79-50.38,19-59.22S416.62,318.35,416.62,318.35Z" style="fill: #16A085; transform-origin: 391.675px 337.81px;" id="el6082w19g3do" class="animable"></path><g id="el2hue0k4t2ew"><path d="M416.62,318.35s-14.87-35.84-23.19-34.28,14.27,57.14,14.27,57.14-26.16-49.35-44-49.35,6.54,54.54,29.14,72.72c0,0-35.68-38.44-56.49-30.12S378,381.73,378,381.73s-36.27-11.43-32.11-2.6,15.46,10.39,15.46,10.39l-41,2.08H463l-32.11-3.12s33.3-16.62,24.38-23.38-28.54,7.79-28.54,7.79,33.89-37.4,27.35-51.42-35.68,25.45-35.68,25.45,23.79-50.38,19-59.22S416.62,318.35,416.62,318.35Z" style="fill: rgb(255, 255, 255); opacity: 0.4; transform-origin: 391.675px 337.81px;" class="animable" id="elj451xb9r3mc"></path></g><path d="M421.38,320.24c-13.08,38.65-13.08,66-13.08,66s15.46.6,31.51-11.29" style="fill: none; stroke: rgb(38, 50, 56); stroke-linecap: round; stroke-linejoin: round; transform-origin: 424.055px 353.243px;" id="eldvlijnqxbx" class="animable"></path><path d="M414.84,341.05a232.21,232.21,0,0,0-10.71-33.89" style="fill: none; stroke: rgb(38, 50, 56); stroke-linecap: round; stroke-linejoin: round; transform-origin: 409.485px 324.105px;" id="ellc0x81o47v" class="animable"></path><path d="M376.19,318.46l33.29,49.35s22.6-19,30.33-29.73" style="fill: none; stroke: rgb(38, 50, 56); stroke-linecap: round; stroke-linejoin: round; transform-origin: 408px 343.135px;" id="elm01h8bql8tr" class="animable"></path><path d="M408.89,379.7s-35.08-16.65-49.35-26.16" style="fill: none; stroke: rgb(38, 50, 56); stroke-linecap: round; stroke-linejoin: round; transform-origin: 384.215px 366.62px;" id="elpnly7qd9flp" class="animable"></path></g><g id="freepik--Page--inject-105" class="animable" style="transform-origin: 254.67px 243.335px;"><polygon points="186.7 139.04 178.53 126 106.57 126 106.57 139.04 106.57 143.73 106.57 360.67 402.77 360.67 402.77 139.04 186.7 139.04" style="fill: rgb(38, 50, 56); transform-origin: 254.67px 243.335px;" id="elismyzxwrxi" class="animable"></polygon><rect x="108.77" y="145.02" width="292.05" height="210.92" style="fill: rgb(255, 255, 255); transform-origin: 254.795px 250.48px;" id="ellw08mxquaf8" class="animable"></rect><g style="clip-path: url(&quot;#freepik--clip-path--inject-105&quot;); transform-origin: 254.93px 249.855px;" id="el5fh01fubgao" class="animable"><g id="el770sbwgd0fk"><rect x="395.47" y="143.21" width="6.78" height="214.33" style="opacity: 0.17; transform-origin: 398.86px 250.375px;" class="animable" id="elnfrvm6bgjja"></rect></g><g id="elvmqa3sys6o"><rect x="395.47" y="272.8" width="6.78" height="83" style="opacity: 0.17; transform-origin: 398.86px 314.3px;" class="animable" id="eli3pyrkrx1cp"></rect></g><rect x="107.61" y="142.17" width="293.59" height="11.47" style="fill: #16A085; stroke: rgb(38, 50, 56); stroke-miterlimit: 10; transform-origin: 254.405px 147.905px;" id="el035vl7a48rjg" class="animable"></rect></g><rect x="108.77" y="145.02" width="292.05" height="210.92" style="fill: none; stroke: rgb(38, 50, 56); stroke-linecap: round; stroke-linejoin: round; transform-origin: 254.795px 250.48px;" id="elslgn87lyl" class="animable"></rect><g id="elntba1ayugxf"><g style="opacity: 0.17; transform-origin: 312.01px 162.895px;" class="animable" id="elqnowbvnqym"><path d="M260.93,164.7H240.5a1.8,1.8,0,0,1-1.8-1.8h0a1.8,1.8,0,0,1,1.8-1.81h20.43a1.8,1.8,0,0,1,1.8,1.81h0A1.8,1.8,0,0,1,260.93,164.7Z" id="eldnqlla45eso" class="animable" style="transform-origin: 250.715px 162.895px;"></path><path d="M301.79,164.7H281.36a1.81,1.81,0,0,1-1.8-1.8h0a1.81,1.81,0,0,1,1.8-1.81h20.43a1.81,1.81,0,0,1,1.81,1.81h0A1.81,1.81,0,0,1,301.79,164.7Z" id="elm3xfp507zfh" class="animable" style="transform-origin: 291.58px 162.895px;"></path><path d="M342.66,164.7H322.23a1.81,1.81,0,0,1-1.81-1.8h0a1.81,1.81,0,0,1,1.81-1.81h20.43a1.81,1.81,0,0,1,1.8,1.81h0A1.81,1.81,0,0,1,342.66,164.7Z" id="elqr8813438l" class="animable" style="transform-origin: 332.44px 162.895px;"></path><path d="M383.52,164.7H363.09a1.8,1.8,0,0,1-1.8-1.8h0a1.8,1.8,0,0,1,1.8-1.81h20.43a1.81,1.81,0,0,1,1.8,1.81h0A1.81,1.81,0,0,1,383.52,164.7Z" id="el5l5t8w9tnnt" class="animable" style="transform-origin: 373.305px 162.895px;"></path></g></g><line x1="136.37" y1="250.79" x2="167.24" y2="250.79" style="fill: none; stroke: rgb(38, 50, 56); stroke-linecap: round; stroke-linejoin: round; stroke-width: 3px; transform-origin: 151.805px 250.79px;" id="ele0qi6kz7v25" class="animable"></line><line x1="166.69" y1="255.6" x2="170.06" y2="255.6" style="fill: none; stroke: rgb(38, 50, 56); stroke-linecap: round; stroke-linejoin: round; transform-origin: 168.375px 255.6px;" id="eludikcey8o3k" class="animable"></line><line x1="147.36" y1="255.6" x2="164.65" y2="255.6" style="fill: none; stroke: rgb(38, 50, 56); stroke-linecap: round; stroke-linejoin: round; transform-origin: 156.005px 255.6px;" id="eld7cq7u7f3sp" class="animable"></line><line x1="134.01" y1="255.6" x2="145.53" y2="255.6" style="fill: none; stroke: rgb(38, 50, 56); stroke-linecap: round; stroke-linejoin: round; transform-origin: 139.77px 255.6px;" id="elmkyukfr76rm" class="animable"></line><line x1="155.9" y1="260.41" x2="170.06" y2="260.41" style="fill: none; stroke: rgb(38, 50, 56); stroke-linecap: round; stroke-linejoin: round; transform-origin: 162.98px 260.41px;" id="elq25vsk6959r" class="animable"></line><line x1="148.17" y1="260.41" x2="153.67" y2="260.41" style="fill: none; stroke: rgb(38, 50, 56); stroke-linecap: round; stroke-linejoin: round; transform-origin: 150.92px 260.41px;" id="el9oncwhtx669" class="animable"></line><line x1="134.01" y1="260.41" x2="145.73" y2="260.41" style="fill: none; stroke: rgb(38, 50, 56); stroke-linecap: round; stroke-linejoin: round; transform-origin: 139.87px 260.41px;" id="ell71v9ava0cg" class="animable"></line><line x1="141.66" y1="265.21" x2="170.06" y2="265.21" style="fill: none; stroke: rgb(38, 50, 56); stroke-linecap: round; stroke-linejoin: round; transform-origin: 155.86px 265.21px;" id="eli3ghpwh6jqs" class="animable"></line><line x1="134.01" y1="265.21" x2="139.02" y2="265.21" style="fill: none; stroke: rgb(38, 50, 56); stroke-linecap: round; stroke-linejoin: round; transform-origin: 136.515px 265.21px;" id="elops8yvhmpbo" class="animable"></line><line x1="163.03" y1="270.02" x2="170.06" y2="270.02" style="fill: none; stroke: rgb(38, 50, 56); stroke-linecap: round; stroke-linejoin: round; transform-origin: 166.545px 270.02px;" id="el88bx67wf91d" class="animable"></line><line x1="149.6" y1="270.02" x2="160.58" y2="270.02" style="fill: none; stroke: rgb(38, 50, 56); stroke-linecap: round; stroke-linejoin: round; transform-origin: 155.09px 270.02px;" id="elp33kil3wxj" class="animable"></line><line x1="134.01" y1="270.02" x2="147.36" y2="270.02" style="fill: none; stroke: rgb(38, 50, 56); stroke-linecap: round; stroke-linejoin: round; transform-origin: 140.685px 270.02px;" id="elnnz5l0kvp7" class="animable"></line><line x1="145.73" y1="274.83" x2="170.06" y2="274.83" style="fill: none; stroke: rgb(38, 50, 56); stroke-linecap: round; stroke-linejoin: round; transform-origin: 157.895px 274.83px;" id="elxzjk9ssrpz" class="animable"></line><line x1="134.01" y1="274.83" x2="143.49" y2="274.83" style="fill: none; stroke: rgb(38, 50, 56); stroke-linecap: round; stroke-linejoin: round; transform-origin: 138.75px 274.83px;" id="el19lbpg66lr" class="animable"></line><line x1="206.77" y1="250.79" x2="237.64" y2="250.79" style="fill: none; stroke: rgb(38, 50, 56); stroke-linecap: round; stroke-linejoin: round; stroke-width: 3px; transform-origin: 222.205px 250.79px;" id="el9id5zpgbg7v" class="animable"></line><line x1="237.09" y1="255.6" x2="240.46" y2="255.6" style="fill: none; stroke: rgb(38, 50, 56); stroke-linecap: round; stroke-linejoin: round; transform-origin: 238.775px 255.6px;" id="elc8emryqd1ye" class="animable"></line><line x1="217.76" y1="255.6" x2="235.05" y2="255.6" style="fill: none; stroke: rgb(38, 50, 56); stroke-linecap: round; stroke-linejoin: round; transform-origin: 226.405px 255.6px;" id="elzvf2aaofn3d" class="animable"></line><line x1="204.41" y1="255.6" x2="215.93" y2="255.6" style="fill: none; stroke: rgb(38, 50, 56); stroke-linecap: round; stroke-linejoin: round; transform-origin: 210.17px 255.6px;" id="elhbgxibj181i" class="animable"></line><line x1="226.3" y1="260.41" x2="240.46" y2="260.41" style="fill: none; stroke: rgb(38, 50, 56); stroke-linecap: round; stroke-linejoin: round; transform-origin: 233.38px 260.41px;" id="elpby5gincxy" class="animable"></line><line x1="218.57" y1="260.41" x2="224.07" y2="260.41" style="fill: none; stroke: rgb(38, 50, 56); stroke-linecap: round; stroke-linejoin: round; transform-origin: 221.32px 260.41px;" id="elo1oqh8w87et" class="animable"></line><line x1="204.41" y1="260.41" x2="216.13" y2="260.41" style="fill: none; stroke: rgb(38, 50, 56); stroke-linecap: round; stroke-linejoin: round; transform-origin: 210.27px 260.41px;" id="elz2jk9yh83v" class="animable"></line><line x1="212.06" y1="265.21" x2="240.46" y2="265.21" style="fill: none; stroke: rgb(38, 50, 56); stroke-linecap: round; stroke-linejoin: round; transform-origin: 226.26px 265.21px;" id="el6r3mfapmmtf" class="animable"></line><line x1="204.41" y1="265.21" x2="209.42" y2="265.21" style="fill: none; stroke: rgb(38, 50, 56); stroke-linecap: round; stroke-linejoin: round; transform-origin: 206.915px 265.21px;" id="elx3wg292mwsc" class="animable"></line><line x1="233.43" y1="270.02" x2="240.46" y2="270.02" style="fill: none; stroke: rgb(38, 50, 56); stroke-linecap: round; stroke-linejoin: round; transform-origin: 236.945px 270.02px;" id="el23ubtszt5tp" class="animable"></line><line x1="220" y1="270.02" x2="230.98" y2="270.02" style="fill: none; stroke: rgb(38, 50, 56); stroke-linecap: round; stroke-linejoin: round; transform-origin: 225.49px 270.02px;" id="el42lzp7cjsp" class="animable"></line><line x1="204.41" y1="270.02" x2="217.76" y2="270.02" style="fill: none; stroke: rgb(38, 50, 56); stroke-linecap: round; stroke-linejoin: round; transform-origin: 211.085px 270.02px;" id="elfbnn2kl4lhk" class="animable"></line><line x1="216.13" y1="274.83" x2="240.46" y2="274.83" style="fill: none; stroke: rgb(38, 50, 56); stroke-linecap: round; stroke-linejoin: round; transform-origin: 228.295px 274.83px;" id="ely1pud98fir" class="animable"></line><line x1="204.41" y1="274.83" x2="213.89" y2="274.83" style="fill: none; stroke: rgb(38, 50, 56); stroke-linecap: round; stroke-linejoin: round; transform-origin: 209.15px 274.83px;" id="eldh5r4f5rplt" class="animable"></line><line x1="277.17" y1="250.79" x2="308.04" y2="250.79" style="fill: none; stroke: rgb(38, 50, 56); stroke-linecap: round; stroke-linejoin: round; stroke-width: 3px; transform-origin: 292.605px 250.79px;" id="eljj7gxfz5ysr" class="animable"></line><line x1="307.49" y1="255.6" x2="310.86" y2="255.6" style="fill: none; stroke: rgb(38, 50, 56); stroke-linecap: round; stroke-linejoin: round; transform-origin: 309.175px 255.6px;" id="elq00oow3rao" class="animable"></line><line x1="288.16" y1="255.6" x2="305.45" y2="255.6" style="fill: none; stroke: rgb(38, 50, 56); stroke-linecap: round; stroke-linejoin: round; transform-origin: 296.805px 255.6px;" id="el4u4njj3up1w" class="animable"></line><line x1="274.81" y1="255.6" x2="286.33" y2="255.6" style="fill: none; stroke: rgb(38, 50, 56); stroke-linecap: round; stroke-linejoin: round; transform-origin: 280.57px 255.6px;" id="ellzrlybv9s2" class="animable"></line><line x1="296.7" y1="260.41" x2="310.86" y2="260.41" style="fill: none; stroke: rgb(38, 50, 56); stroke-linecap: round; stroke-linejoin: round; transform-origin: 303.78px 260.41px;" id="elit52fxl0w3p" class="animable"></line><line x1="288.97" y1="260.41" x2="294.47" y2="260.41" style="fill: none; stroke: rgb(38, 50, 56); stroke-linecap: round; stroke-linejoin: round; transform-origin: 291.72px 260.41px;" id="elh9ryy2zgq2l" class="animable"></line><line x1="274.81" y1="260.41" x2="286.53" y2="260.41" style="fill: none; stroke: rgb(38, 50, 56); stroke-linecap: round; stroke-linejoin: round; transform-origin: 280.67px 260.41px;" id="el9k18fk7c2rl" class="animable"></line><line x1="282.46" y1="265.21" x2="310.86" y2="265.21" style="fill: none; stroke: rgb(38, 50, 56); stroke-linecap: round; stroke-linejoin: round; transform-origin: 296.66px 265.21px;" id="elfbd2t69tvhc" class="animable"></line><line x1="274.81" y1="265.21" x2="279.82" y2="265.21" style="fill: none; stroke: rgb(38, 50, 56); stroke-linecap: round; stroke-linejoin: round; transform-origin: 277.315px 265.21px;" id="eljoibdjmjpag" class="animable"></line><line x1="303.83" y1="270.02" x2="310.86" y2="270.02" style="fill: none; stroke: rgb(38, 50, 56); stroke-linecap: round; stroke-linejoin: round; transform-origin: 307.345px 270.02px;" id="elvof56ukgemf" class="animable"></line><line x1="290.4" y1="270.02" x2="301.38" y2="270.02" style="fill: none; stroke: rgb(38, 50, 56); stroke-linecap: round; stroke-linejoin: round; transform-origin: 295.89px 270.02px;" id="elxgpignhiejm" class="animable"></line><line x1="274.81" y1="270.02" x2="288.16" y2="270.02" style="fill: none; stroke: rgb(38, 50, 56); stroke-linecap: round; stroke-linejoin: round; transform-origin: 281.485px 270.02px;" id="eldzbhsxbarlp" class="animable"></line><line x1="286.53" y1="274.83" x2="310.86" y2="274.83" style="fill: none; stroke: rgb(38, 50, 56); stroke-linecap: round; stroke-linejoin: round; transform-origin: 298.695px 274.83px;" id="elpu0egv0sr78" class="animable"></line><line x1="274.81" y1="274.83" x2="284.29" y2="274.83" style="fill: none; stroke: rgb(38, 50, 56); stroke-linecap: round; stroke-linejoin: round; transform-origin: 279.55px 274.83px;" id="elkinoyzalzti" class="animable"></line><line x1="347.57" y1="250.79" x2="378.44" y2="250.79" style="fill: none; stroke: rgb(38, 50, 56); stroke-linecap: round; stroke-linejoin: round; stroke-width: 3px; transform-origin: 363.005px 250.79px;" id="elluty2ym9kur" class="animable"></line><line x1="377.89" y1="255.6" x2="381.26" y2="255.6" style="fill: none; stroke: rgb(38, 50, 56); stroke-linecap: round; stroke-linejoin: round; transform-origin: 379.575px 255.6px;" id="elcx4x60ky7lw" class="animable"></line><line x1="358.56" y1="255.6" x2="375.85" y2="255.6" style="fill: none; stroke: rgb(38, 50, 56); stroke-linecap: round; stroke-linejoin: round; transform-origin: 367.205px 255.6px;" id="elkwsu98jske" class="animable"></line><line x1="345.21" y1="255.6" x2="356.73" y2="255.6" style="fill: none; stroke: rgb(38, 50, 56); stroke-linecap: round; stroke-linejoin: round; transform-origin: 350.97px 255.6px;" id="elfhgiz9tl4g" class="animable"></line><line x1="367.1" y1="260.41" x2="381.26" y2="260.41" style="fill: none; stroke: rgb(38, 50, 56); stroke-linecap: round; stroke-linejoin: round; transform-origin: 374.18px 260.41px;" id="el0qfqn69gn6je" class="animable"></line><line x1="359.37" y1="260.41" x2="364.87" y2="260.41" style="fill: none; stroke: rgb(38, 50, 56); stroke-linecap: round; stroke-linejoin: round; transform-origin: 362.12px 260.41px;" id="el0p4c7fyd20xb" class="animable"></line><line x1="345.21" y1="260.41" x2="356.93" y2="260.41" style="fill: none; stroke: rgb(38, 50, 56); stroke-linecap: round; stroke-linejoin: round; transform-origin: 351.07px 260.41px;" id="elrmyvq82wrra" class="animable"></line><line x1="352.86" y1="265.21" x2="381.26" y2="265.21" style="fill: none; stroke: rgb(38, 50, 56); stroke-linecap: round; stroke-linejoin: round; transform-origin: 367.06px 265.21px;" id="el4gtruywds8q" class="animable"></line><line x1="345.21" y1="265.21" x2="350.22" y2="265.21" style="fill: none; stroke: rgb(38, 50, 56); stroke-linecap: round; stroke-linejoin: round; transform-origin: 347.715px 265.21px;" id="el54288x6bhjq" class="animable"></line><line x1="374.23" y1="270.02" x2="381.26" y2="270.02" style="fill: none; stroke: rgb(38, 50, 56); stroke-linecap: round; stroke-linejoin: round; transform-origin: 377.745px 270.02px;" id="elqfikcvs46v" class="animable"></line><line x1="360.8" y1="270.02" x2="371.78" y2="270.02" style="fill: none; stroke: rgb(38, 50, 56); stroke-linecap: round; stroke-linejoin: round; transform-origin: 366.29px 270.02px;" id="elw8ie1pfwcbj" class="animable"></line><line x1="345.21" y1="270.02" x2="358.56" y2="270.02" style="fill: none; stroke: rgb(38, 50, 56); stroke-linecap: round; stroke-linejoin: round; transform-origin: 351.885px 270.02px;" id="el0db3xqf14pw" class="animable"></line><line x1="356.93" y1="274.83" x2="381.26" y2="274.83" style="fill: none; stroke: rgb(38, 50, 56); stroke-linecap: round; stroke-linejoin: round; transform-origin: 369.095px 274.83px;" id="ell5et5o9uqyp" class="animable"></line><line x1="345.21" y1="274.83" x2="354.69" y2="274.83" style="fill: none; stroke: rgb(38, 50, 56); stroke-linecap: round; stroke-linejoin: round; transform-origin: 349.95px 274.83px;" id="el6yjtrljcj" class="animable"></line><path d="M390.77,235.3h-272V179.19h272Z" style="fill: #16A085; transform-origin: 254.77px 207.245px;" id="eld1cnnsvjjhs" class="animable"></path><g id="el3g6v83b1c3s"><path d="M390.77,235.3h-272V179.19h272Z" style="fill: rgb(255, 255, 255); opacity: 0.7; transform-origin: 254.77px 207.245px;" class="animable" id="eljl1fiost7r"></path></g><path d="M321.94,235.3H187.65V179.19H321.94Z" style="fill: #16A085; transform-origin: 254.795px 207.245px;" id="elhtbtoz58hoe" class="animable"></path><g id="el1ng2kvw5dd"><path d="M321.94,235.3H187.65V179.19H321.94Z" style="fill: rgb(255, 255, 255); opacity: 0.92; transform-origin: 254.795px 207.245px;" class="animable" id="ell0uon1nqu5c"></path></g><line x1="294.5" y1="195.45" x2="303.65" y2="195.45" style="fill: none; stroke: rgb(38, 50, 56); stroke-linecap: round; stroke-linejoin: round; transform-origin: 299.075px 195.45px;" id="elmnefnruwo7e" class="animable"></line><line x1="242.12" y1="195.45" x2="288.99" y2="195.45" style="fill: none; stroke: rgb(38, 50, 56); stroke-linecap: round; stroke-linejoin: round; transform-origin: 265.555px 195.45px;" id="elk4r9tt5q1pj" class="animable"></line><line x1="205.94" y1="195.45" x2="237.15" y2="195.45" style="fill: none; stroke: rgb(38, 50, 56); stroke-linecap: round; stroke-linejoin: round; transform-origin: 221.545px 195.45px;" id="elqtvqyxh0vyi" class="animable"></line><line x1="265.28" y1="200.26" x2="303.65" y2="200.26" style="fill: none; stroke: rgb(38, 50, 56); stroke-linecap: round; stroke-linejoin: round; transform-origin: 284.465px 200.26px;" id="elbaocxdke3aw" class="animable"></line><line x1="244.32" y1="200.26" x2="259.21" y2="200.26" style="fill: none; stroke: rgb(38, 50, 56); stroke-linecap: round; stroke-linejoin: round; transform-origin: 251.765px 200.26px;" id="elaj01q41e3ya" class="animable"></line><line x1="205.94" y1="200.26" x2="237.71" y2="200.26" style="fill: none; stroke: rgb(38, 50, 56); stroke-linecap: round; stroke-linejoin: round; transform-origin: 221.825px 200.26px;" id="elbdcu0xtjuwe" class="animable"></line><line x1="226.68" y1="205.07" x2="303.65" y2="205.07" style="fill: none; stroke: rgb(38, 50, 56); stroke-linecap: round; stroke-linejoin: round; transform-origin: 265.165px 205.07px;" id="elgyluth5ob2" class="animable"></line><line x1="205.94" y1="205.07" x2="219.51" y2="205.07" style="fill: none; stroke: rgb(38, 50, 56); stroke-linecap: round; stroke-linejoin: round; transform-origin: 212.725px 205.07px;" id="el76zozvo7nja" class="animable"></line><line x1="284.58" y1="209.88" x2="303.65" y2="209.88" style="fill: none; stroke: rgb(38, 50, 56); stroke-linecap: round; stroke-linejoin: round; transform-origin: 294.115px 209.88px;" id="elsu7zi4kbd7" class="animable"></line><line x1="248.18" y1="209.88" x2="277.96" y2="209.88" style="fill: none; stroke: rgb(38, 50, 56); stroke-linecap: round; stroke-linejoin: round; transform-origin: 263.07px 209.88px;" id="el4s1a1l2u9aj" class="animable"></line><line x1="205.94" y1="209.88" x2="242.12" y2="209.88" style="fill: none; stroke: rgb(38, 50, 56); stroke-linecap: round; stroke-linejoin: round; transform-origin: 224.03px 209.88px;" id="elhk0urckyr27" class="animable"></line><line x1="237.71" y1="214.68" x2="303.65" y2="214.68" style="fill: none; stroke: rgb(38, 50, 56); stroke-linecap: round; stroke-linejoin: round; transform-origin: 270.68px 214.68px;" id="eljo9vh099d5t" class="animable"></line><line x1="205.94" y1="214.68" x2="231.64" y2="214.68" style="fill: none; stroke: rgb(38, 50, 56); stroke-linecap: round; stroke-linejoin: round; transform-origin: 218.79px 214.68px;" id="ela4eslvwnes4" class="animable"></line><path d="M390.77,355.24h-272V299.13h272Z" style="fill: #16A085; transform-origin: 254.77px 327.185px;" id="eltuu1j9iiie" class="animable"></path><g id="elml5zo24o08"><path d="M390.77,355.24h-272V299.13h272Z" style="fill: rgb(255, 255, 255); opacity: 0.7; transform-origin: 254.77px 327.185px;" class="animable" id="el0qlxbefkdo5e"></path></g></g><g id="freepik--character-4--inject-105" class="animable" style="transform-origin: 363.75px 321.678px;"><g style="clip-path: url(&quot;#freepik--clip-path-2--inject-105&quot;); transform-origin: 363.75px 321.678px;" id="elde0e03zngr" class="animable"><path d="M358.58,320.48s-15.93,6.4-18.43,7.19-2.65,1.87-2.65,5.3.47,18.9.47,20.15-.16,3.59-.16,3.59H390s-3.44-14-5.47-20.61-1.09-7.19-4.68-9.37-13-5.31-15-5.78A38.93,38.93,0,0,0,358.58,320.48Z" style="fill: rgb(38, 50, 56); stroke: rgb(38, 50, 56); stroke-linecap: round; stroke-linejoin: round; transform-origin: 363.75px 338.595px;" id="elj26m3w2auf" class="animable"></path><path d="M359.36,318.76s-3.75-.31-5.31,2.82S348.74,332,348.74,332l4.53,2.81L348,337.5a106.32,106.32,0,0,0,3.28,11.4,71.42,71.42,0,0,0,3.12,7.19S362,347.5,365,344.84a23.84,23.84,0,0,0,4.84-6.56l-3.9-3.59,6.72-.78s-1.72-8.74-3.91-12.33S359.36,318.76,359.36,318.76Z" style="fill: rgb(38, 50, 56); stroke: rgb(38, 50, 56); stroke-linecap: round; stroke-linejoin: round; transform-origin: 360.33px 337.39px;" id="elywkje1qiwk" class="animable"></path><path d="M351.69,349c.28.78.58,1.52.87,2.17" style="fill: none; stroke: rgb(255, 255, 255); stroke-linecap: round; stroke-linejoin: round; stroke-width: 0.5px; transform-origin: 352.125px 350.085px;" id="el3j7qfm35bbe" class="animable"></path><path d="M352.26,325.47,348.74,332l4.53,2.81-4.85,2.75s1.13,4.93,2.55,9.35" style="fill: none; stroke: rgb(255, 255, 255); stroke-linecap: round; stroke-linejoin: round; stroke-width: 0.5px; transform-origin: 350.845px 336.19px;" id="eljcrgykf0728" class="animable"></path><path d="M370,322.51l2.63,11.4-6.72.78,3.9,3.59s-7.5,8.79-10.61,12.34" style="fill: none; stroke: rgb(255, 255, 255); stroke-linecap: round; stroke-linejoin: round; stroke-width: 0.5px; transform-origin: 365.915px 336.565px;" id="elc2mt2j7hj4u" class="animable"></path><line x1="379.82" y1="340" x2="377.01" y2="357.34" style="fill: none; stroke: rgb(255, 255, 255); stroke-linecap: round; stroke-linejoin: round; stroke-width: 0.5px; transform-origin: 378.415px 348.67px;" id="eljel60gg01kp" class="animable"></line><path d="M341.25,336.88s-.31,10.46-.16,13.74a21.83,21.83,0,0,0,1.25,6.09" style="fill: none; stroke: rgb(255, 255, 255); stroke-linecap: round; stroke-linejoin: round; stroke-width: 0.5px; transform-origin: 341.695px 346.795px;" id="elhko244wa60v" class="animable"></path><polygon points="370.14 344.22 372.79 340.63 374.98 344.22 370.14 344.22" style="fill: rgb(255, 255, 255); stroke: rgb(38, 50, 56); stroke-miterlimit: 10; transform-origin: 372.56px 342.425px;" id="el05jwb27rtvaf" class="animable"></polygon><path d="M373.26,309.86s2.65-.31,3.28,3.6-1.25,8.9-7.5,8.9-5.77-4.69-5.62-8.12S373.26,309.86,373.26,309.86Z" style="fill: rgb(38, 50, 56); stroke: rgb(38, 50, 56); stroke-miterlimit: 10; transform-origin: 370.001px 316.107px;" id="elkw0d0lrkpk" class="animable"></path><path d="M357.8,316.27s-.16,4.52-.47,9.68-2.81,12.18-2.81,18.11a90.94,90.94,0,0,0,.47,9.84s5.15-10,7.49-15.77,5-22.49,5-22.49Z" style="fill: rgb(255, 255, 255); stroke: rgb(38, 50, 56); stroke-miterlimit: 10; transform-origin: 360.999px 334.77px;" id="elmp6oy111r1" class="animable"></path><path d="M373.1,306a17.25,17.25,0,0,0,1.88-7.34c0-3.9-.78-9.21-5.31-11.56s-13.28-.78-15.46,3.75a18.64,18.64,0,0,0-2,9.37,22.18,22.18,0,0,0,1.09,5.15s.63-3,4.84-4.52,8.75-3.13,10.93-2S373.1,306,373.1,306Z" style="fill: rgb(38, 50, 56); stroke: rgb(38, 50, 56); stroke-linecap: round; stroke-linejoin: round; transform-origin: 363.584px 296.008px;" id="elh4asq0pyudt" class="animable"></path><path d="M353.43,304.4s-1.88-2.81-2.66-.78.32,5,1.56,5.62,1.88.31,1.88.31Z" style="fill: rgb(255, 255, 255); stroke: rgb(38, 50, 56); stroke-linecap: round; stroke-linejoin: round; transform-origin: 352.359px 306.255px;" id="elaj5nc6uo4n" class="animable"></path><path d="M373.1,304.87s2.19-2.19,2.19-.16a9,9,0,0,1-2,5.15c-.94,1.25-1.41.63-1.41.63Z" style="fill: rgb(255, 255, 255); stroke: rgb(38, 50, 56); stroke-linecap: round; stroke-linejoin: round; transform-origin: 373.585px 307.246px;" id="elznd6w7llnz" class="animable"></path><path d="M369.39,295.88l1.55-4.37a.68.68,0,0,0-1.29-.46l-1.3,3.65a10.33,10.33,0,0,0-8.05,1.42c-4.06,2.66-7.34,5-7.34,5s.16,8.9,1.87,12.18,4.69,7.18,7.19,7.18,6.87-5.46,8.59-7.18,2.81-8.43,2.81-10.62C373.42,301.11,370.84,297.69,369.39,295.88Z" style="fill: rgb(255, 255, 255); stroke: rgb(38, 50, 56); stroke-miterlimit: 10; transform-origin: 363.19px 305.538px;" id="elyzz3sxgeakk" class="animable"></path><path d="M363.24,336a17.05,17.05,0,0,1-7.48-1,46.39,46.39,0,0,0-1.24,9.13,90.94,90.94,0,0,0,.47,9.84s5.15-10,7.49-15.77C362.73,337.52,363,336.77,363.24,336Z" style="fill: #16A085; stroke: rgb(38, 50, 56); stroke-miterlimit: 10; transform-origin: 358.879px 344.485px;" id="elpmwt6osn5a" class="animable"></path></g></g><g id="freepik--character-3--inject-105" class="animable" style="transform-origin: 291.154px 318.767px;"><g style="clip-path: url(&quot;#freepik--clip-path-3--inject-105&quot;); transform-origin: 291.154px 318.767px;" id="elv20a4z4d46m" class="animable"><path d="M289.43,312.19a110.91,110.91,0,0,0-11.85,2c-4.57,1.18-6.77,1.69-6.77,3.89s-.51,11.68-2,15.92-3.22,10.33-3.22,12.53,3.22,11.51,3.22,11.51h5.92s-2.2-10.84-2.2-11.85,3.05-10,3.05-10l.17,22.18h31l-.33-21.17s2.7,8.64,2.7,10.16-1,11.52-1,11.52H314s2.88-11,2.71-14.9-3-16.26-3.38-20,1.86-5.76-2.2-8.3-13.38-4.06-15.41-4.23A32.58,32.58,0,0,0,289.43,312.19Z" style="fill: #16A085; stroke: rgb(38, 50, 56); stroke-miterlimit: 10; transform-origin: 291.154px 335.165px;" id="elqmvkdwj9ns" class="animable"></path><polyline points="275.55 336.24 276.06 327.77 274.19 321.34" style="fill: none; stroke: rgb(38, 50, 56); stroke-linecap: round; stroke-linejoin: round; transform-origin: 275.125px 328.79px;" id="eliycqlhhyn4q" class="animable"></polyline><line x1="306.37" y1="326.42" x2="306.37" y2="337.25" style="fill: none; stroke: rgb(38, 50, 56); stroke-linecap: round; stroke-linejoin: round; transform-origin: 306.37px 331.835px;" id="eld7ge9lkzuon" class="animable"></line><line x1="306.53" y1="329.47" x2="309.24" y2="325.4" style="fill: none; stroke: rgb(38, 50, 56); stroke-linecap: round; stroke-linejoin: round; transform-origin: 307.885px 327.435px;" id="elyvnvv6wh08" class="animable"></line><line x1="292.31" y1="323.71" x2="291.3" y2="358.08" style="fill: rgb(255, 255, 255); stroke: rgb(38, 50, 56); stroke-linecap: round; stroke-linejoin: round; transform-origin: 291.805px 340.895px;" id="elq5665pxkqh" class="animable"></line><path d="M291.8,308.13a6.6,6.6,0,0,0-4.06,1.69c-1.86,1.7-2.54,8.3-2.54,8.3s5.93-1.69,6.94-2,10,1.69,10,1.69-.84-5.92-3.21-8.46S291.8,308.13,291.8,308.13Z" style="fill: rgb(38, 50, 56); stroke: rgb(38, 50, 56); stroke-linecap: round; stroke-linejoin: round; transform-origin: 293.67px 312.954px;" id="eld6ewvxh7wh" class="animable"></path><path d="M289.43,302.71s1.36,2,1.36,8,.67,12.19,1.52,13,4.4-8,4.4-12a18.38,18.38,0,0,1,1.87-7.62s-4.24-2.88-6.44-3.22A2.4,2.4,0,0,0,289.43,302.71Z" style="fill: rgb(255, 255, 255); stroke: rgb(38, 50, 56); stroke-linecap: round; stroke-linejoin: round; transform-origin: 294.005px 312.302px;" id="elnkxt66cr7p" class="animable"></path><path d="M291.06,317.31c.27,3.29.73,5.88,1.25,6.4s2.15-2.78,3.27-6.32A14.35,14.35,0,0,1,291.06,317.31Z" style="fill: rgb(38, 50, 56); stroke: rgb(38, 50, 56); stroke-linecap: round; stroke-linejoin: round; transform-origin: 293.32px 320.537px;" id="elo7sy7hwc2kl" class="animable"></path><path d="M299.76,286.46s1,.34,2.88-1.36,1-4.91.17-4.23a6.55,6.55,0,0,0-1.36,1.52,5.48,5.48,0,0,0-4.57-3.72c-3.55-.34-7.79,4.57-7.79,4.57s-7.78,5.76-6.94,10.33,5.25,8.63,7.28,9.14,5.76-3.21,5.08-6.43-1.18-8,0-8.47A48.06,48.06,0,0,1,299.76,286.46Z" style="fill: rgb(38, 50, 56); stroke: rgb(38, 50, 56); stroke-linecap: round; stroke-linejoin: round; transform-origin: 292.922px 290.705px;" id="elkapt14k7ugk" class="animable"></path><path d="M289.09,300s-2.87-2-3.55-.5.85,4.23,2.71,5.07,3.55-1.86,3.55-1.86,5.93,4.74,10,4.91,4.24-3.05,3.56-9.14-2.71-10.84-4.23-12.53-7.45-.17-9.32,1.35-3,2.88-1.18,3.22,3.55,1,1.86,2.88-2.54,1.18-2,2.54,2.71,2.71.68,3.39Z" style="fill: rgb(255, 255, 255); stroke: rgb(38, 50, 56); stroke-linecap: round; stroke-linejoin: round; transform-origin: 295.52px 296.417px;" id="elss7q93c7pni" class="animable"></path></g></g><g id="freepik--character-2--inject-105" class="animable" style="transform-origin: 212.069px 320.171px;"><g style="clip-path: url(&quot;#freepik--clip-path-4--inject-105&quot;); transform-origin: 212.069px 320.171px;" id="eld5bggp9b41" class="animable"><path d="M214.68,309s-21.34,2.54-22,4.4-8.46,20-7.28,21.67,3.56,2,5.42,2a6.26,6.26,0,0,0,3.56-1.52l-5.42,23h39.28l1.19-16.09s4.57,2,7.62,1.7,2.37-2.71,1.69-7.28-1-16.26-2.2-18.46-15.58-8.3-15.58-8.3Z" style="fill: rgb(38, 50, 56); stroke: rgb(38, 50, 56); stroke-linecap: round; stroke-linejoin: round; transform-origin: 212.3px 333.775px;" id="elmihurhyb5if" class="animable"></path><polyline points="229.75 336.58 229.75 326.08 230.59 324.05" style="fill: none; stroke: rgb(255, 255, 255); stroke-linecap: round; stroke-linejoin: round; transform-origin: 230.17px 330.315px;" id="elcogurh47nu9" class="animable"></polyline><polyline points="195.54 327.77 197.24 320.66 196.9 319.14" style="fill: none; stroke: rgb(255, 255, 255); stroke-linecap: round; stroke-linejoin: round; transform-origin: 196.39px 323.455px;" id="elypsxa75oc2" class="animable"></polyline><path d="M200,359.27s3.21-13.89,4.74-22.52S212.64,309,212.64,309l9.83,2.71s-6.61,19.3-8.3,27.6-3.11,20.06-3.11,20.06Z" style="fill: #16A085; stroke: rgb(38, 50, 56); stroke-miterlimit: 10; transform-origin: 211.235px 334.185px;" id="elx9d4veuxht9" class="animable"></path><path d="M214,307s-2.88,0-3.9,2-2.37,9.82-2.37,9.82,6.1-2.71,6.61-2.71,2.88.17,4.06,1.52,3.73,4.57,3.73,4.57,3.89-6.26,2.88-10.32a6.57,6.57,0,0,0-5.93-4.91Z" style="fill: #16A085; stroke: rgb(38, 50, 56); stroke-miterlimit: 10; transform-origin: 216.454px 314.585px;" id="elddodj9vqqle" class="animable"></path><path d="M213,302.54s-.34,11.86,0,15.24.85,4.23.85,4.23,2.88-4.74,3.72-6.43,3.39-3.56,4.58-5.08,2-7.28,2-7.28-4.4,3.39-6.77,2.54A12.6,12.6,0,0,1,213,302.54Z" style="fill: rgb(255, 255, 255); stroke: rgb(38, 50, 56); stroke-linecap: round; stroke-linejoin: round; transform-origin: 218.499px 312.275px;" id="elv7t76xwjusc" class="animable"></path><path d="M220,281.11c-2.88.42-5.69,1.86-6.5,4.67-.68,2.37-1,10.16-1.18,14.05s1.86,8.81,3.55,9.32a8.46,8.46,0,0,0,4.4.34c.85-.34,4.75-5.59,5.76-6.61s4.06-10.5,4.06-13.88a7.67,7.67,0,0,0-5.24-7.62A11.67,11.67,0,0,0,220,281.11Z" style="fill: rgb(255, 255, 255); stroke: rgb(38, 50, 56); stroke-linecap: round; stroke-linejoin: round; transform-origin: 221.203px 295.304px;" id="elz8fhe6zpwc" class="animable"></path><path d="M228.39,297s2.71-2.38,2,.67a6.39,6.39,0,0,1-3.38,4.24Z" style="fill: rgb(255, 255, 255); stroke: rgb(38, 50, 56); stroke-linecap: round; stroke-linejoin: round; transform-origin: 228.759px 299.013px;" id="elaxvh0qmzjc" class="animable"></path><path d="M212.64,293.74s-2-1.86-2,.68a8,8,0,0,0,1.7,4.57Z" style="fill: rgb(255, 255, 255); stroke: rgb(38, 50, 56); stroke-linecap: round; stroke-linejoin: round; transform-origin: 211.64px 296.037px;" id="elnytimq0tts" class="animable"></path><path d="M228.39,297a34.49,34.49,0,0,0,1.69-8,7.67,7.67,0,0,0-5.24-7.62,11.67,11.67,0,0,0-4.85-.27c-2.88.42-5.69,1.86-6.5,4.67a55.44,55.44,0,0,0-.91,8.49c.86-.67,2.65-2.31,2.27-4.26-.51-2.54-1.53-3.72.33-4.91s4.07.51,7.12,1.53,6.09-.34,6.94.5-2.71,4.41-2.2,5.76,1.69,2.88,1.35,4.07Z" style="fill: rgb(38, 50, 56); stroke: rgb(38, 50, 56); stroke-linecap: round; stroke-linejoin: round; transform-origin: 221.334px 288.986px;" id="elfkihtqh9lb" class="animable"></path><path d="M204,329.47s-2.54-3.56-4.23-3.73-5.76,3.73-5.76,3.73Z" style="fill: rgb(255, 255, 255); stroke: rgb(38, 50, 56); stroke-linecap: round; stroke-linejoin: round; transform-origin: 199.005px 327.602px;" id="elqo0dyx055rs" class="animable"></path><polygon points="220.09 329.8 222.47 329.8 222.97 334.55 220.43 333.87 220.09 329.8" style="fill: rgb(255, 255, 255); stroke: rgb(38, 50, 56); stroke-linecap: round; stroke-linejoin: round; transform-origin: 221.53px 332.175px;" id="elvkt2qsoginr" class="animable"></polygon><polygon points="222.47 329.8 226.7 331.67 227.71 336.92 222.97 334.55 222.47 329.8" style="fill: rgb(255, 255, 255); stroke: rgb(38, 50, 56); stroke-linecap: round; stroke-linejoin: round; transform-origin: 225.09px 333.36px;" id="elcxhfm7k8yf" class="animable"></polygon><path d="M236,339l-24.21-9.48a19.64,19.64,0,0,0-3.9,2.53,6.14,6.14,0,0,0-1.52,2.54s11.51,8.3,17.1,10.84,13.72,3.39,15.07,2,1-6.6.17-7.45a6.86,6.86,0,0,0-1.52-1.18" style="fill: rgb(38, 50, 56); stroke: rgb(38, 50, 56); stroke-linecap: round; stroke-linejoin: round; transform-origin: 222.907px 338.807px;" id="el6c3xr1x5jyy" class="animable"></path><path d="M220.09,329l.34,4.91s-17.78,4.06-24.38,5.25-10.16.33-11.17-2.71,2.37-6.78,3.89-7.62S220.09,329,220.09,329Z" style="fill: rgb(38, 50, 56); stroke: rgb(38, 50, 56); stroke-linecap: round; stroke-linejoin: round; transform-origin: 202.562px 334.086px;" id="elhw5skgwmm9b" class="animable"></path></g></g><g id="freepik--character-1--inject-105" class="animable" style="transform-origin: 146.315px 321.254px;"><g style="clip-path: url(&quot;#freepik--clip-path-5--inject-105&quot;); transform-origin: 146.315px 321.254px;" id="elu9gexze6wie" class="animable"><path d="M154.69,317.39s6.78,1.69,9.49,2.54,3.55,1.86,3.55,3.89-1.52,11-1.52,12.36v9.15c0,2.54,2.54,11.85,2.54,11.85h-33s-3.72-14.22-6.26-22-2.88-10.5-.34-11.69a167.55,167.55,0,0,1,18.45-5.58A50.79,50.79,0,0,1,154.69,317.39Z" style="fill: #16A085; stroke: rgb(38, 50, 56); stroke-miterlimit: 10; transform-origin: 148.078px 337.285px;" id="elf4d82inzqrt" class="animable"></path><path d="M164.52,328.56s2,9.32,1.35,12.7-5.25,16.26-5.25,16.26" style="fill: none; stroke: rgb(38, 50, 56); stroke-linecap: round; stroke-linejoin: round; transform-origin: 163.31px 343.04px;" id="elisj4qzrm4uj" class="animable"></path><path d="M129.13,323.48s-3,.51-2.2,4.41S123.88,357,123.88,357h7.45s5.08-13.38,5.92-16.59,1.53-5.76,0-8.47" style="fill: #16A085; stroke: rgb(38, 50, 56); stroke-miterlimit: 10; transform-origin: 131.018px 340.24px;" id="eltzsumf5pwe" class="animable"></path><polygon points="160.68 300.9 161.79 335.39 151.78 335.39 151.78 303.87 160.68 300.9" style="fill: rgb(38, 50, 56); stroke: rgb(38, 50, 56); stroke-linecap: round; stroke-linejoin: round; transform-origin: 156.785px 318.145px;" id="elqwtdqefjbp" class="animable"></polygon><path d="M147.75,325.69s2.88,13,4.07,16.93,1.35,13,1,14.22,4.23,0,4.23,0,1.19-9,1.87-14.22-1.36-15.07-1.36-15.07l-2.2-8.64-8.3,1.53Z" style="fill: rgb(255, 255, 255); stroke: rgb(38, 50, 56); stroke-linecap: round; stroke-linejoin: round; transform-origin: 153.059px 338.146px;" id="elt9035d0hdlf" class="animable"></path><path d="M155,311.46a21.06,21.06,0,0,0,.17,8.13c1,3.73,3.73,10.5,1.36,12.36s-5.59.85-7.28-2.54-3.22-11.85-3.22-18.79.68-8.13,3.05-8.13S155,311.46,155,311.46Z" style="fill: rgb(255, 255, 255); stroke: rgb(38, 50, 56); stroke-linecap: round; stroke-linejoin: round; transform-origin: 151.751px 317.681px;" id="el7dsx0535k6g" class="animable"></path><path d="M150.12,308.25a14,14,0,0,1-5.25,2.87c-2.54.51-3.89-6.26-4.23-13s1.36-10.5,4.91-12.19,12.19-.85,15.58.5,7.45,3.56,7.45,7.11S164,300,162.65,300.8s-4.57,2-6.6,4.06A18.87,18.87,0,0,1,150.12,308.25Z" style="fill: rgb(38, 50, 56); stroke: rgb(38, 50, 56); stroke-linecap: round; stroke-linejoin: round; transform-origin: 154.589px 298.067px;" id="el388qi60mgc" class="animable"></path><path d="M150.12,308.25s2,5.08,5.76,5.24,8-8.46,8.13-12.19-3.73-10.16-3.73-10.16S153.68,306.21,150.12,308.25Z" style="fill: rgb(255, 255, 255); stroke: rgb(38, 50, 56); stroke-linecap: round; stroke-linejoin: round; transform-origin: 157.067px 302.316px;" id="el2p26pqmrj4w" class="animable"></path><polyline points="149.11 300.63 149.44 337.2 138.1 337.2 140.64 294.7" style="fill: rgb(38, 50, 56); stroke: rgb(38, 50, 56); stroke-linecap: round; stroke-linejoin: round; transform-origin: 143.77px 315.95px;" id="elyc70dbhbcc" class="animable"></polyline></g></g><defs><clipPath id="freepik--clip-path--inject-105"><rect x="108.77" y="145.02" width="292.05" height="210.92" style="fill:#fff;stroke:#263238;stroke-linecap:round;stroke-linejoin:round"></rect></clipPath><clipPath id="freepik--clip-path-2--inject-105"><rect x="332.48" y="276.35" width="60.39" height="79.24" style="fill:none"></rect></clipPath><clipPath id="freepik--clip-path-3--inject-105"><rect x="261.7" y="276.35" width="60.39" height="79.24" style="fill:none"></rect></clipPath><clipPath id="freepik--clip-path-4--inject-105"><rect x="182.46" y="275.97" width="60.39" height="79.63" style="fill:none"></rect></clipPath><clipPath id="freepik--clip-path-5--inject-105"><rect x="121.68" y="276.35" width="53.47" height="79.24" style="fill:none"></rect></clipPath></defs><defs>     <filter id="active" height="200%">         <feMorphology in="SourceAlpha" result="DILATED" operator="dilate" radius="2"></feMorphology>                <feFlood flood-color="#32DFEC" flood-opacity="1" result="PINK"></feFlood>        <feComposite in="PINK" in2="DILATED" operator="in" result="OUTLINE"></feComposite>        <feMerge>            <feMergeNode in="OUTLINE"></feMergeNode>            <feMergeNode in="SourceGraphic"></feMergeNode>        </feMerge>    </filter>    <filter id="hover" height="200%">        <feMorphology in="SourceAlpha" result="DILATED" operator="dilate" radius="2"></feMorphology>                <feFlood flood-color="#ff0000" flood-opacity="0.5" result="PINK"></feFlood>        <feComposite in="PINK" in2="DILATED" operator="in" result="OUTLINE"></feComposite>        <feMerge>            <feMergeNode in="OUTLINE"></feMergeNode>            <feMergeNode in="SourceGraphic"></feMergeNode>        </feMerge>            <feColorMatrix type="matrix" values="0   0   0   0   0                0   1   0   0   0                0   0   0   0   0                0   0   0   1   0 "></feColorMatrix>    </filter></defs></svg>